#!OML:ASF G:\ViconDB\ViconDB\414\test\team2\shane.ASF
:FULLY-SPECIFIED
:DEGREES
251
root 1.14284 16.6023 5.38879 -7.68407 8.97716 -6.15781
lowerback 8.30432 -2.78282 3.57112
upperback 5.04704 -3.42313 4.3388
thorax 0.647511 -1.69185 2.74521
lowerneck -13.1418 -3.95144 -7.73731
upperneck 40.0429 -1.69536 -4.58653
head 16.8619 -2.49506 -0.976542
rclavicle -1.83876e-014 2.94201e-014
rhumerus -21.3606 -1.35205 -49.7257
rradius 126.866
rwrist 158.79
rhand -7.53932 15.7591
rfingers 7.12502
rthumb 18.3521 -13.3952
lclavicle -1.83876e-014 2.94201e-014
lhumerus -43.8522 -26.6265 102.513
lradius 33.4751
lwrist -16.9798
lhand -36.4768 5.68659
lfingers 7.12502
lthumb -9.56984 35.4493
rfemur -13.6859 -18.2533 21.258
rtibia 38.8108
rfoot -18.5293 1.35
rtoes -7.92048
lfemur 12.4847 -3.23739 -1.99762
ltibia 51.2259
lfoot -3.81382 -9.56967
ltoes -11.2762
252
root 1.10991 16.6069 5.57722 -7.8823 8.77419 -6.3094
lowerback 8.2647 -2.68169 3.73918
upperback 5.23939 -3.29075 4.47006
thorax 0.866563 -1.62164 2.77105
lowerneck -12.7545 -4.19814 -7.83058
upperneck 40.886 -1.9903 -4.7361
head 17.2422 -2.66522 -1.10849
rclavicle 1.03368e-014 -2.3059e-014
rhumerus -16.4497 2.46594 -47.6537
rradius 119.852
rwrist 158.878
rhand -10.6984 16.4443
rfingers 7.12502
rthumb 15.311 -12.969
lclavicle 1.03368e-014 -2.3059e-014
lhumerus -44.04 -27.326 102.753
lradius 33.9266
lwrist -16.8857
lhand -36.4658 5.5678
lfingers 7.12502
lthumb -9.55929 35.3309
rfemur -12.9477 -18.5853 21.3247
rtibia 39.11
rfoot -18.9894 1.90526
rtoes -7.52331
lfemur 10.7781 -2.63405 -1.64929
ltibia 54.6202
lfoot -5.57137 -9.48893
ltoes -12.5382
253
root 1.08089 16.6035 5.76351 -8.0668 8.66019 -6.40271
lowerback 8.38277 -2.57023 3.85353
upperback 5.30691 -3.12951 4.65961
thorax 0.8747 -1.54066 2.89692
lowerneck -12.1686 -4.55269 -8.06648
upperneck 41.6002 -2.33233 -5.13812
head 17.5164 -2.90436 -1.33198
rclavicle -3.22031e-014 1.43125e-014
rhumerus -15.1822 2.70457 -46.674
rradius 118.245
rwrist 157.23
rhand -11.9526 17.2787
rfingers 7.12502
rthumb 14.1027 -12.2227
lclavicle -3.22031e-014 1.43125e-014
lhumerus -44.3963 -27.9834 103.081
lradius 34.5083
lwrist -16.1606
lhand -36.4858 4.89918
lfingers 7.12502
lthumb -9.57857 34.6614
rfemur -12.2482 -19.045 21.3225
rtibia 39.4283
rfoot -19.3384 2.38536
rtoes -7.51449
lfemur 9.08374 -2.05777 -1.3482
ltibia 57.7371
lfoot -6.97843 -9.69835
ltoes -12.3441
254
root 1.04723 16.5926 5.94676 -8.23833 8.66646 -6.54215
lowerback 8.17552 -2.47885 3.98187
upperback 5.56322 -3.03063 4.83886
thorax 1.25901 -1.48711 2.98951
lowerneck -11.5962 -4.9121 -8.31215
upperneck 42.0688 -2.70507 -5.50034
head 17.6569 -3.14472 -1.53071
rclavicle 1.98785e-015 3.33958e-014
rhumerus -13.7046 2.85717 -45.5049
rradius 117.588
rwrist 156.465
rhand -13.3713 19.401
rfingers 7.12502
rthumb 12.7353 -10.1906
lclavicle 1.98785e-015 3.33958e-014
lhumerus -44.5407 -28.8339 103.283
lradius 35.08
lwrist -16.2372
lhand -36.7127 5.01144
lfingers 7.12502
lthumb -9.79748 34.7635
rfemur -11.5724 -19.4927 21.3804
rtibia 39.763
rfoot -19.7434 2.55526
rtoes -8.93292
lfemur 7.38443 -1.69703 -1.07026
ltibia 60.5638
lfoot -7.82555 -10.0813
ltoes -11.8336
255
root 1.01399 16.5823 6.13222 -8.40624 8.68327 -6.60051
lowerback 8.12981 -2.36596 3.92266
upperback 5.73646 -2.89905 5.06533
thorax 1.47837 -1.42491 3.24458
lowerneck -10.8787 -5.23627 -8.42428
upperneck 42.4052 -3.00222 -6.07242
head 17.6728 -3.35652 -1.82234
rclavicle -6.92765e-014 6.36111e-014
rhumerus -12.6132 2.91335 -44.2338
rradius 117.235
rwrist 156.85
rhand -14.8995 18.9847
rfingers 7.12502
rthumb 11.2617 -10.693
lclavicle -6.92765e-014 6.36111e-014
lhumerus -44.8319 -29.8088 103.665
lradius 35.8467
lwrist -15.3205
lhand -36.693 5.01551
lfingers 7.12502
lthumb -9.77847 34.7685
rfemur -10.8483 -19.5476 21.3532
rtibia 40.1004
rfoot -20.23 2.6395
rtoes -8.7172
lfemur 5.70512 -0.888938 -0.713998
ltibia 63.0966
lfoot -8.86981 -10.9213
ltoes -11.9427
256
root 0.984291 16.5641 6.31471 -8.61157 8.65963 -6.93368
lowerback 7.91318 -2.23992 4.35637
upperback 6.01932 -2.74126 5.28784
thorax 1.88429 -1.33229 3.21132
lowerneck -10.1609 -5.59502 -8.74241
upperneck 42.663 -3.39823 -6.39254
head 17.6567 -3.60358 -1.97288
rclavicle -1.78906e-015 -1.43125e-014
rhumerus -11.9169 2.84552 -43.2456
rradius 117.475
rwrist 158.033
rhand -13.9917 19.2831
rfingers 7.12502
rthumb 12.1371 -10.3449
lclavicle -1.78906e-015 -1.43125e-014
lhumerus -45.0434 -30.8588 103.944
lradius 36.5744
lwrist -14.5435
lhand -37.0231 5.07892
lfingers 7.12502
lthumb -10.097 34.8167
rfemur -10.1176 -19.8005 21.613
rtibia 40.4285
rfoot -20.852 2.79421
rtoes -8.80682
lfemur 4.14392 -0.226397 -0.147642
ltibia 65.3371
lfoot -9.82815 -11.3815
ltoes -11.9071
257
root 0.949667 16.5582 6.49845 -8.73084 8.85401 -6.90553
lowerback 7.8318 -2.11531 4.20087
upperback 6.18019 -2.60319 5.51666
thorax 2.11341 -1.2704 3.52434
lowerneck -9.31937 -5.8833 -8.87979
upperneck 42.8611 -3.65171 -6.96705
head 17.5582 -3.79432 -2.23393
rclavicle -1.78906e-015 -1.43125e-014
rhumerus -11.9169 2.84552 -43.2456
rradius 117.475
rwrist 158.033
rhand -13.9917 19.2831
rfingers 7.12502
rthumb 12.1371 -10.3449
lclavicle -1.78906e-015 -1.43125e-014
lhumerus -45.0434 -30.8588 103.944
lradius 36.5744
lwrist -14.5435
lhand -37.0231 5.07892
lfingers 7.12502
lthumb -10.097 34.8167
rfemur -9.34921 -20.0286 21.4603
rtibia 40.6814
rfoot -21.5289 2.83346
rtoes -8.91646
lfemur 2.45128 0.337922 -0.190768
ltibia 67.2763
lfoot -10.8363 -11.6343
ltoes -12.0378
258
root 0.919604 16.5437 6.68263 -8.91987 8.96513 -7.07816
lowerback 7.77094 -1.92069 4.33374
upperback 6.37073 -2.35712 5.88734
thorax 2.35417 -1.14757 3.82177
lowerneck -8.53005 -6.26482 -9.49212
upperneck 43.0974 -4.002 -7.31219
head 17.535 -4.06623 -2.33007
rclavicle 1.39149e-015 -4.05521e-014
rhumerus -11.9169 2.84552 -43.2456
rradius 117.475
rwrist 158.033
rhand -13.9917 19.2831
rfingers 7.12502
rthumb 12.1371 -10.3449
lclavicle -1.78906e-015 -1.43125e-014
lhumerus -45.0434 -30.8588 103.944
lradius 36.5744
lwrist -14.5435
lhand -37.0231 5.07892
lfingers 7.12502
lthumb -10.097 34.8167
rfemur -8.50586 -20.1681 21.5264
rtibia 40.8973
rfoot -22.2692 2.70099
rtoes -9.13961
lfemur 0.939349 0.95155 0.027698
ltibia 68.9333
lfoot -11.9943 -11.7762
ltoes -11.4769
259
root 0.890157 16.5415 6.86623 -9.07804 9.27697 -7.20194
lowerback 7.75787 -1.89881 4.36699
upperback 6.4707 -2.33513 6.08703
thorax 2.47544 -1.13829 4.0117
lowerneck -7.5026 -6.46769 -9.70043
upperneck 43.2021 -4.19832 -7.76
head 17.3417 -4.22442 -2.48881
rclavicle 5.96354e-015 7.95139e-015
rhumerus -11.9169 2.84552 -43.2456
rradius 117.475
rwrist 158.033
rhand -13.9917 19.2831
rfingers 7.12502
rthumb 12.1371 -10.3449
lclavicle -1.78906e-015 -1.43125e-014
lhumerus -45.0434 -30.8588 103.944
lradius 36.5744
lwrist -14.5435
lhand -37.0231 5.07892
lfingers 7.12502
lthumb -10.097 34.8167
rfemur -7.65702 -20.1877 21.5726
rtibia 41.0344
rfoot -22.8389 2.33726
rtoes -9.47576
lfemur -0.603369 1.59559 0.0465248
ltibia 70.2702
lfoot -13.3748 -11.5014
ltoes -12.0033
260
root 0.86893 16.5291 7.04688 -9.22199 9.50546 -7.08103
lowerback 7.54098 -1.77445 4.42654
upperback 6.73232 -2.20482 6.17739
thorax 2.86935 -1.06883 4.05881
lowerneck -6.70707 -6.79625 -9.73629
upperneck 43.2713 -4.47753 -8.50208
head 17.169 -4.42388 -2.82802
rclavicle -2.00773e-014 0
rhumerus -11.9169 2.84552 -43.2456
rradius 117.475
rwrist 158.033
rhand -13.9917 19.2831
rfingers 7.12502
rthumb 12.1371 -10.3449
lclavicle -1.78906e-015 -1.43125e-014
lhumerus -45.0434 -30.8588 103.944
lradius 36.5744
lwrist -14.5435
lhand -37.0231 5.07892
lfingers 7.12502
lthumb -10.097 34.8167
rfemur -6.78824 -20.3164 21.3036
rtibia 41.1464
rfoot -23.3452 2.03573
rtoes -10.54
lfemur -2.03124 2.22412 -0.282117
ltibia 71.369
lfoot -14.6128 -10.9958
ltoes -11.1448
261
root 0.842579 16.5208 7.22673 -9.42468 9.73133 -7.0969
lowerback 7.47818 -1.68735 4.4081
upperback 6.95096 -2.11281 6.33739
thorax 3.14069 -1.02477 4.2322
lowerneck -5.96216 -7.09629 -9.95691
upperneck 43.4444 -4.72988 -9.06999
head 17.0877 -4.62117 -3.06308
rclavicle 1.78906e-015 -7.31528e-014
rhumerus -11.9169 2.84552 -43.2456
rradius 117.475
rwrist 158.033
rhand -13.9917 19.2831
rfingers 7.12502
rthumb 12.1371 -10.3449
lclavicle 1.78906e-015 -7.31528e-014
lhumerus -45.7962 -32.6416 103.956
lradius 40.0569
lwrist -13.6424
lhand -39.2295 5.54152
lfingers 7.12502
lthumb -12.225 35.1642
rfemur -5.89846 -20.4059 21.2134
rtibia 41.173
rfoot -23.77 1.75649
rtoes -10.8393
lfemur -3.42047 2.7235 -0.498845
ltibia 72.14
lfoot -15.7168 -10.5034
ltoes -11.4607
262
root 0.814291 16.512 7.40716 -9.61994 9.95701 -7.01248
lowerback 7.45788 -1.53229 4.35266
upperback 7.16209 -1.92699 6.46619
thorax 3.37552 -0.934798 4.39148
lowerneck -5.1516 -7.41828 -10.3655
upperneck 43.5649 -5.09553 -9.36229
head 16.9804 -4.85585 -3.1481
rclavicle 8.94531e-015 3.02153e-014
rhumerus -11.9169 2.84552 -43.2456
rradius 117.475
rwrist 158.033
rhand -13.9917 19.2831
rfingers 7.12502
rthumb 12.1371 -10.3449
lclavicle 8.94531e-015 3.02153e-014
lhumerus -45.9023 -32.6331 103.78
lradius 40.6812
lwrist -13.8456
lhand -39.6329 5.62327
lfingers 7.12502
lthumb -12.6139 35.2224
rfemur -4.91541 -20.4566 21.0245
rtibia 41.1031
rfoot -24.2184 1.57049
rtoes -10.947
lfemur -4.64646 3.29646 -0.881934
ltibia 72.5797
lfoot -16.7471 -9.96099
ltoes -10.7525
263
root 0.791765 16.5052 7.58553 -9.78927 10.1761 -6.94802
lowerback 7.46961 -1.4786 4.4034
upperback 7.26137 -1.85812 6.47071
thorax 3.47017 -0.896707 4.3655
lowerneck -4.38061 -7.70862 -10.3882
upperneck 43.7975 -5.32442 -10.0857
head 16.9052 -5.03297 -3.48112
rclavicle 2.5842e-015 3.18055e-015
rhumerus -11.9169 2.84552 -43.2456
rradius 117.475
rwrist 158.033
rhand -13.9917 19.2831
rfingers 7.12502
rthumb 12.1371 -10.3449
lclavicle 2.5842e-015 3.18055e-015
lhumerus -46.3914 -32.7716 103.498
lradius 41.273
lwrist -14.6885
lhand -39.9166 5.86012
lfingers 7.12502
lthumb -12.8874 35.4422
rfemur -3.84449 -20.607 20.8142
rtibia 40.8715
rfoot -24.7908 1.42931
rtoes -10.6621
lfemur -5.85577 3.90616 -1.31412
ltibia 72.6797
lfoot -17.7565 -9.2959
ltoes -10.7446
264
root 0.767535 16.5098 7.76779 -9.88618 10.2447 -6.91363
lowerback 7.54416 -1.4331 5.2504
upperback 7.28598 -1.73989 5.86249
thorax 3.40367 -0.782203 3.24393
lowerneck -3.8019 -7.93973 -9.6928
upperneck 44.1638 -5.68379 -10.5452
head 16.8828 -5.1302 -3.84924
rclavicle 2.5842e-015 3.18055e-015
rhumerus -11.9169 2.84552 -43.2456
rradius 117.475
rwrist 158.033
rhand -13.9917 19.2831
rfingers 7.12502
rthumb 12.1371 -10.3449
lclavicle 2.5842e-015 3.18055e-015
lhumerus -46.3914 -32.7716 103.498
lradius 41.273
lwrist -14.6885
lhand -39.9166 5.86012
lfingers 7.12502
lthumb -12.8874 35.4422
rfemur -2.74782 -20.5604 20.6929
rtibia 40.4427
rfoot -25.306 1.24443
rtoes -11.0156
lfemur -7.01841 4.48889 -1.75114
ltibia 72.4703
lfoot -18.6872 -8.67726
ltoes -11.1806
265
root 0.753168 16.5171 7.94834 -9.90969 10.1787 -6.8887
lowerback 7.54978 -1.34981 5.49654
upperback 7.27066 -1.61535 5.88145
thorax 3.37785 -0.709368 3.12098
lowerneck -3.08198 -8.19492 -10.1002
upperneck 44.3189 -5.86248 -11.0516
head 16.8165 -5.31941 -4.00918
rclavicle 2.5842e-015 3.18055e-015
rhumerus -11.9169 2.84552 -43.2456
rradius 117.475
rwrist 158.033
rhand -13.9917 19.2831
rfingers 7.12502
rthumb 12.1371 -10.3449
lclavicle 2.5842e-015 3.18055e-015
lhumerus -46.3914 -32.7716 103.498
lradius 41.273
lwrist -14.6885
lhand -39.9166 5.86012
lfingers 7.12502
lthumb -12.8874 35.4422
rfemur -1.68088 -20.3107 20.6363
rtibia 39.8489
rfoot -25.6507 1.0084
rtoes -11.3602
lfemur -8.08561 5.18178 -2.24889
ltibia 71.9041
lfoot -19.3869 -7.96156
ltoes -11.3927
